<?xml version="1.0" standalone="no"?>
<!DOCTYPE svg PUBLIC "-//W3C//DTD SVG 20010904//EN"
 "http://www.w3.org/TR/2001/REC-SVG-20010904/DTD/svg10.dtd">
<svg version="1.0" xmlns="http://www.w3.org/2000/svg"
 width="300.000000pt" height="355.000000pt" viewBox="0 0 300.000000 355.000000"
 preserveAspectRatio="xMidYMid meet">
<metadata>
Created by potrace 1.10, written by Peter Selinger 2001-2011
</metadata>
<g transform="translate(0.000000,355.000000) scale(0.100000,-0.100000)"
fill="#000000" stroke="none">
<path d="M715 3434 c-165 -17 -146 -8 -395 -191 l-230 -168 3 -1470 2 -1470
110 -16 c145 -22 377 -22 528 -1 l118 17 219 160 219 160 0 173 1 172 169
-332 169 -333 69 -13 c97 -20 570 -22 683 -3 l85 14 226 164 225 164 -384 760
-384 760 25 52 c14 29 172 348 351 710 179 361 326 659 326 660 0 2 -46 10
-102 18 -127 17 -540 18 -650 1 l-77 -12 -228 -169 -228 -170 -135 -287 -135
-286 -3 454 -2 455 -93 12 c-94 13 -409 22 -482 15z m374 -35 c136 -13 153
-19 119 -41 -13 -9 -101 -74 -196 -146 l-173 -131 -107 15 c-124 17 -374 20
-481 4 -41 -6 -75 -9 -77 -7 -2 1 87 69 197 149 l200 146 87 7 c48 3 94 8 102
9 36 8 223 5 329 -5z m1580 0 c111 -11 139 -17 115 -26 -7 -2 -58 -39 -115
-81 -57 -42 -145 -107 -194 -144 l-90 -66 -115 14 c-132 17 -466 19 -554 4
-33 -5 -61 -8 -63 -6 -5 4 364 275 390 286 59 26 439 37 626 19z m-1570 -1307
c-89 -185 -175 -368 -192 -406 l-31 -70 192 -377 192 -377 0 -194 0 -194 -67
-49 c-38 -27 -130 -95 -205 -152 l-138 -102 1 1442 1 1442 201 151 202 151 3
-464 2 -464 -161 -337z m1386 641 c-165 -335 -314 -637 -330 -672 -29 -62 -35
-67 -227 -213 -109 -81 -198 -147 -198 -144 0 2 150 306 334 676 l335 672 188
143 c103 78 191 143 194 144 3 0 -130 -272 -296 -606z m-1765 334 l95 -12 3
-1447 2 -1447 -32 -5 c-218 -34 -414 -35 -633 -1 l-30 5 1 1447 1 1448 89 11
c118 15 385 15 504 1z m1526 1 c63 -6 114 -15 114 -19 0 -4 -130 -268 -288
-586 -159 -318 -314 -630 -344 -693 l-56 -115 225 -445 c124 -245 295 -581
380 -748 85 -167 153 -305 151 -306 -10 -9 -274 -26 -390 -26 -123 0 -305 13
-365 25 -24 6 -61 77 -702 1342 l-62 123 189 397 c104 219 256 538 337 708 81
171 153 315 159 322 28 30 441 43 652 21z m336 -2015 l295 -583 -205 -150
c-184 -133 -207 -147 -217 -132 -15 22 -176 335 -485 947 -133 264 -247 486
-253 493 -6 8 -7 16 -1 22 5 5 99 76 209 158 l200 149 81 -161 c45 -88 214
-423 376 -743z"/>
</g>
</svg>
